<svg width="29" height="30" viewBox="0 0 29 30" fill="none" xmlns="http://www.w3.org/2000/svg">
<path d="M3.7931 23.2238C5.88793 19.0341 18.9224 16.2408 25.2069 23.2238M28 15C28 22.4558 21.9558 28.5 14.5 28.5C7.04416 28.5 1 22.4558 1 15C1 7.54416 7.04416 1.5 14.5 1.5C21.9558 1.5 28 7.54416 28 15ZM18.2241 12.9052C18.2241 15.6047 16.3484 17.7931 14.0345 17.7931C11.7206 17.7931 9.84483 15.6047 9.84483 12.9052C9.84483 10.2056 11.7206 8.01724 14.0345 8.01724C16.3484 8.01724 18.2241 10.2056 18.2241 12.9052Z" stroke="#2D0F12" stroke-width="2"/>
</svg>
