<svg width="295" height="42" viewBox="0 0 295 42" fill="none" xmlns="http://www.w3.org/2000/svg">
<path d="M45.1707 8.8071C44.9294 8.84156 44.6824 9.52514 44.6106 9.79799C44.5244 8.59168 44.5216 8.00649 43.6628 7.85928C42.1549 7.60078 40.7332 11.7367 39.8715 14.0632C40.3454 11.0905 37.7605 7.42845 36.6834 12.7707C36.4457 15.8352 35.9079 19.7501 34.7016 22.335C30.0774 32.244 13.4188 39.1373 11.8247 38.5772C10.2307 38.0171 16.0038 35.9296 15.1421 34.8721C14.2804 33.8146 12.7725 35.9922 8.20576 36.1646C3.639 36.3369 18.2871 31.0593 13.5049 32.244C8.72275 33.4288 -2.41701 34.1828 10.003 30.93C22.4231 27.6773 6.42977 30.4777 5.87928 29.4868C5.32879 28.4959 11.8247 26.988 16.3053 26.2125C18.5456 25.2647 7.64565 25.7386 8.93813 24.1445C10.2306 22.5505 34.7016 24.1445 34.7016 10.9181C34.7016 8.8071 29.7471 5.14507 24.0602 14.1924C28.67 -8.03822 43.0596 0.449063 45.1707 8.8071Z" fill="url(#paint0_linear_160_11)"/>
<path d="M31.34 39.0516C21.697 45.6864 13.5469 39.0516 13.5469 39.0516C13.5469 39.0516 24.9638 35.8635 31.34 29.1426C37.7162 22.4217 36.8977 18.2428 37.587 12.642C37.975 9.48956 39.3103 11.2201 39.3103 13.8051C39.5606 15.6848 38.8795 17.8357 39.181 18.3718C39.4826 18.908 41.6368 10.1 43.2739 8.85056C44.911 7.60116 42.3692 14.7528 42.3692 16.4762C42.3692 18.1996 44.6956 11.4788 45.9881 9.19532C47.2806 6.91184 47.4284 7.95976 46.8067 10.4015C46.1345 13.0414 44.7096 16.563 44.911 17.1225C45.2988 18.1996 47.8837 10.9617 49.1762 10.8325C50.4687 10.7032 47.5822 15.27 46.979 17.5534C46.3759 19.8367 49.607 15.0977 50.4687 15.0977C51.3304 15.0977 49.0039 19.1905 49.0039 19.1905C49.0039 19.1905 40.9831 32.4169 31.34 39.0516Z" fill="url(#paint1_linear_160_11)"/>
<path d="M7.17134 30.6498C6.55095 30.7187 5.73525 31.138 5.40495 31.3391C1.61375 25.9538 -0.994082 17.0118 0.364361 13.0291C6.05127 -3.64394 22.2074 0.750598 23.8875 14.1923C20.01 6.86824 13.2461 5.53269 10.3165 8.24688C7.60225 10.5303 6.00819 15.0539 9.58397 22.9811C5.65483 24.2908 9.58396 25.767 12.0397 26.3415C6.86984 27.2894 6.09435 27.6341 5.14653 28.668C4.54338 29.5728 5.40495 30.846 7.17134 30.6498Z" fill="url(#paint2_linear_160_11)"/>
<path d="M77.7784 21.408C77.7784 22.736 77.6104 23.944 77.2744 25.032C76.9544 26.104 76.4584 27.032 75.7864 27.816C75.1304 28.6 74.2824 29.2 73.2424 29.616C72.2184 30.032 71.0104 30.24 69.6184 30.24C68.2264 30.24 67.0104 30.032 65.9704 29.616C64.9464 29.184 64.0984 28.584 63.4264 27.816C62.7704 27.032 62.2744 26.096 61.9384 25.008C61.6184 23.92 61.4584 22.712 61.4584 21.384C61.4584 19.608 61.7464 18.064 62.3224 16.752C62.9144 15.44 63.8104 14.424 65.0104 13.704C66.2264 12.968 67.7704 12.6 69.6424 12.6C71.4984 12.6 73.0264 12.968 74.2264 13.704C75.4264 14.424 76.3144 15.448 76.8904 16.776C77.4824 18.088 77.7784 19.632 77.7784 21.408ZM65.2744 21.408C65.2744 22.608 65.4264 23.64 65.7304 24.504C66.0344 25.368 66.5064 26.032 67.1464 26.496C67.7864 26.96 68.6104 27.192 69.6184 27.192C70.6584 27.192 71.4904 26.96 72.1144 26.496C72.7544 26.032 73.2184 25.368 73.5064 24.504C73.8104 23.64 73.9624 22.608 73.9624 21.408C73.9624 19.6 73.6264 18.184 72.9544 17.16C72.2824 16.136 71.1784 15.624 69.6424 15.624C68.6184 15.624 67.7864 15.856 67.1464 16.32C66.5064 16.784 66.0344 17.448 65.7304 18.312C65.4264 19.176 65.2744 20.208 65.2744 21.408ZM87.2014 30H83.5774V15.888H78.9214V12.864H91.8574V15.888H87.2014V30ZM108.468 30H104.34L98.1238 21.312V30H94.4998V12.864H98.1238V21.168L104.268 12.864H108.132L101.892 21.096L108.468 30ZM116.097 12.864C118.305 12.864 119.913 13.344 120.921 14.304C121.945 15.248 122.457 16.552 122.457 18.216C122.457 18.968 122.345 19.688 122.121 20.376C121.897 21.048 121.521 21.656 120.993 22.2C120.481 22.728 119.801 23.144 118.953 23.448C118.105 23.752 117.057 23.904 115.809 23.904H114.249V30H110.625V12.864H116.097ZM115.905 15.84H114.249V20.928H115.449C116.137 20.928 116.729 20.84 117.225 20.664C117.721 20.488 118.105 20.208 118.377 19.824C118.649 19.44 118.785 18.944 118.785 18.336C118.785 17.488 118.553 16.864 118.089 16.464C117.625 16.048 116.897 15.84 115.905 15.84ZM125.695 30V12.864H129.319V19.44H130.495C132.079 19.44 133.383 19.664 134.407 20.112C135.431 20.56 136.183 21.176 136.663 21.96C137.159 22.744 137.407 23.64 137.407 24.648C137.407 25.768 137.159 26.728 136.663 27.528C136.167 28.328 135.399 28.944 134.359 29.376C133.335 29.792 132.007 30 130.375 30H125.695ZM130.279 27.024C131.351 27.024 132.191 26.848 132.799 26.496C133.423 26.144 133.735 25.528 133.735 24.648C133.735 24.04 133.591 23.576 133.303 23.256C133.031 22.936 132.623 22.72 132.079 22.608C131.535 22.48 130.879 22.416 130.111 22.416H129.319V27.024H130.279ZM139.495 30V12.864H143.119V30H139.495ZM154.045 30H150.421V15.888H145.765V12.864H158.701V15.888H154.045V30ZM161.344 30V12.864H164.968V19.44H166.144C167.728 19.44 169.032 19.664 170.056 20.112C171.08 20.56 171.832 21.176 172.312 21.96C172.808 22.744 173.056 23.64 173.056 24.648C173.056 25.768 172.808 26.728 172.312 27.528C171.816 28.328 171.048 28.944 170.008 29.376C168.984 29.792 167.656 30 166.024 30H161.344ZM165.928 27.024C167 27.024 167.84 26.848 168.448 26.496C169.072 26.144 169.384 25.528 169.384 24.648C169.384 24.04 169.24 23.576 168.952 23.256C168.68 22.936 168.272 22.72 167.728 22.608C167.184 22.48 166.528 22.416 165.76 22.416H164.968V27.024H165.928ZM175.144 30V12.864H178.768V30H175.144ZM192.958 30H183.094V12.864H192.958V15.84H186.718V19.608H192.526V22.584H186.718V27H192.958V30ZM208.366 15.648C207.678 15.648 207.062 15.784 206.518 16.056C205.99 16.328 205.542 16.72 205.174 17.232C204.806 17.728 204.526 18.336 204.334 19.056C204.158 19.776 204.07 20.584 204.07 21.48C204.07 22.696 204.214 23.736 204.502 24.6C204.806 25.448 205.278 26.096 205.918 26.544C206.558 26.992 207.374 27.216 208.366 27.216C209.07 27.216 209.766 27.136 210.454 26.976C211.158 26.816 211.918 26.592 212.734 26.304V29.352C211.982 29.656 211.238 29.88 210.502 30.024C209.766 30.168 208.942 30.24 208.03 30.24C206.27 30.24 204.814 29.88 203.662 29.16C202.526 28.424 201.686 27.4 201.142 26.088C200.598 24.76 200.326 23.216 200.326 21.456C200.326 20.16 200.502 18.976 200.854 17.904C201.206 16.816 201.718 15.88 202.39 15.096C203.078 14.312 203.918 13.704 204.91 13.272C205.918 12.84 207.07 12.624 208.366 12.624C209.214 12.624 210.062 12.736 210.91 12.96C211.774 13.168 212.598 13.456 213.382 13.824L212.206 16.776C211.566 16.472 210.918 16.208 210.262 15.984C209.622 15.76 208.99 15.648 208.366 15.648ZM226.239 30H216.375V12.864H226.239V15.84H219.999V19.608H225.807V22.584H219.999V27H226.239V30ZM235.277 12.864C237.485 12.864 239.093 13.344 240.101 14.304C241.125 15.248 241.637 16.552 241.637 18.216C241.637 18.968 241.525 19.688 241.301 20.376C241.077 21.048 240.701 21.656 240.173 22.2C239.661 22.728 238.981 23.144 238.133 23.448C237.285 23.752 236.237 23.904 234.989 23.904H233.429V30H229.805V12.864H235.277ZM235.085 15.84H233.429V20.928H234.629C235.317 20.928 235.909 20.84 236.405 20.664C236.901 20.488 237.285 20.208 237.557 19.824C237.829 19.44 237.965 18.944 237.965 18.336C237.965 17.488 237.733 16.864 237.269 16.464C236.805 16.048 236.077 15.84 235.085 15.84ZM256.861 12.864V26.976H259.141V34.992H255.637V30H244.909V34.992H241.405V26.976H242.725C243.173 26.08 243.605 25.136 244.021 24.144C244.437 23.152 244.821 22.088 245.173 20.952C245.541 19.816 245.869 18.584 246.157 17.256C246.445 15.912 246.685 14.448 246.877 12.864H256.861ZM249.757 15.888C249.645 16.72 249.485 17.608 249.277 18.552C249.069 19.48 248.821 20.432 248.533 21.408C248.261 22.384 247.957 23.344 247.621 24.288C247.285 25.232 246.925 26.128 246.541 26.976H253.237V15.888H249.757ZM277.877 27.12V34.992H274.373V30H261.773V12.864H265.397V26.976H271.709V12.864H275.333V27.12H277.877ZM291.011 30L289.763 25.92H283.523L282.275 30H278.363L284.411 12.792H288.851L294.923 30H291.011ZM287.651 18.888C287.571 18.616 287.467 18.272 287.339 17.856C287.211 17.44 287.083 17.016 286.955 16.584C286.827 16.152 286.723 15.776 286.643 15.456C286.563 15.776 286.451 16.176 286.307 16.656C286.179 17.12 286.051 17.568 285.923 18C285.811 18.416 285.723 18.712 285.659 18.888L284.435 22.872H288.899L287.651 18.888Z" fill="url(#paint3_linear_160_11)"/>
<defs>
<linearGradient id="paint0_linear_160_11" x1="24.7494" y1="0" x2="24.7494" y2="38.609" gradientUnits="userSpaceOnUse">
<stop stop-color="#FCB207"/>
<stop offset="0.5" stop-color="#FF4A01"/>
<stop offset="1" stop-color="#DD0E22"/>
</linearGradient>
<linearGradient id="paint1_linear_160_11" x1="32.1035" y1="7.92871" x2="32.1035" y2="42.0004" gradientUnits="userSpaceOnUse">
<stop stop-color="#FCB207"/>
<stop offset="0.5" stop-color="#FF4A01"/>
<stop offset="1" stop-color="#DD0E22"/>
</linearGradient>
<linearGradient id="paint2_linear_160_11" x1="11.9437" y1="2.22266" x2="11.9437" y2="31.3391" gradientUnits="userSpaceOnUse">
<stop stop-color="#FCB207"/>
<stop offset="0.5" stop-color="#FF4A01"/>
<stop offset="1" stop-color="#DD0E22"/>
</linearGradient>
<linearGradient id="paint3_linear_160_11" x1="177.167" y1="12.6023" x2="177.167" y2="30.0682" gradientUnits="userSpaceOnUse">
<stop stop-color="#FCB207"/>
<stop offset="0.564937" stop-color="#FF4A01"/>
<stop offset="1" stop-color="#DD0E22"/>
</linearGradient>
</defs>
</svg>
