<svg width="498" height="371" viewBox="0 0 498 371" fill="none" xmlns="http://www.w3.org/2000/svg">
<path d="M140 211.5H354C357.59 211.5 360.5 214.41 360.5 218V327C360.5 330.59 357.59 333.5 354 333.5H140C136.41 333.5 133.5 330.59 133.5 327V218C133.5 214.41 136.41 211.5 140 211.5Z" stroke="#878787" stroke-width="9"/>
<line x1="140.127" y1="216.278" x2="230.278" y2="266.873" stroke="#878787" stroke-width="9" stroke-linecap="round"/>
<line x1="352.257" y1="217.121" x2="263.121" y2="266.743" stroke="#878787" stroke-width="9" stroke-linecap="round"/>
<line x1="354.75" y1="330.197" x2="250.197" y2="259.25" stroke="#878787" stroke-width="9" stroke-linecap="round"/>
<line x1="136.321" y1="331.775" x2="248.775" y2="258.679" stroke="#878787" stroke-width="9" stroke-linecap="round"/>
<line x1="331.344" y1="190.497" x2="358.497" y2="213.656" stroke="#878787" stroke-width="9" stroke-linecap="round"/>
<line x1="162.007" y1="194.286" x2="136.286" y2="212.993" stroke="#878787" stroke-width="9" stroke-linecap="round"/>
<line x1="165.5" y1="123.5" x2="329.5" y2="123.5" stroke="#878787" stroke-width="9" stroke-linecap="round"/>
<line x1="165.5" y1="124.5" x2="165.5" y2="228.5" stroke="#878787" stroke-width="9" stroke-linecap="round"/>
<line x1="329.5" y1="124.5" x2="329.5" y2="228.5" stroke="#878787" stroke-width="9" stroke-linecap="round"/>
<rect x="170" y="128" width="155" height="96" fill="white"/>
<path d="M493 366L5 366" stroke="#878787" stroke-width="9" stroke-linecap="round"/>
<circle cx="247" cy="191" r="36" fill="#E7E7E7"/>
<path d="M273 177L242.103 205.882C241.407 206.532 240.349 206.602 239.574 206.048L222 193.485" stroke="white" stroke-width="6" stroke-linecap="round"/>
<path d="M387 56L392.837 73.9656H411.727L396.445 85.0689L402.282 103.034L387 91.9311L371.718 103.034L377.555 85.0689L362.273 73.9656H381.163L387 56Z" fill="#FCB207"/>
<path d="M75 176L80.6129 193.62L98.7764 193.62L84.0818 204.51L89.6946 222.13L75 211.24L60.3054 222.13L65.9182 204.51L51.2236 193.62L69.3871 193.62L75 176Z" fill="#FCB207"/>
<path d="M427.5 188L433.001 205.275H450.801L436.4 215.951L441.901 233.225L427.5 222.549L413.099 233.225L418.6 215.951L404.199 205.275H421.999L427.5 188Z" fill="#FCB207"/>
<path d="M248.5 0L253.776 15.2016H270.85L257.037 24.5967L262.313 39.7984L248.5 30.4033L234.687 39.7984L239.963 24.5967L226.15 15.2016H243.224L248.5 0Z" fill="#FCB207"/>
<path d="M117 59L122.388 74.5471H139.825L125.719 84.1558L131.107 99.7029L117 90.0942L102.893 99.7029L108.281 84.1558L94.1746 74.5471H111.612L117 59Z" fill="#FCB207"/>
</svg>
