<svg width="51" height="42" viewBox="0 0 51 42" fill="none" xmlns="http://www.w3.org/2000/svg">
<path d="M45.1707 8.8071C44.9294 8.84156 44.6824 9.52514 44.6106 9.79799C44.5244 8.59168 44.5216 8.00649 43.6628 7.85928C42.1549 7.60078 40.7332 11.7367 39.8715 14.0632C40.3454 11.0905 37.7605 7.42845 36.6834 12.7707C36.4457 15.8352 35.9079 19.7501 34.7016 22.335C30.0774 32.244 13.4188 39.1373 11.8247 38.5772C10.2307 38.0171 16.0038 35.9296 15.1421 34.8721C14.2804 33.8146 12.7725 35.9922 8.20576 36.1646C3.639 36.3369 18.2871 31.0593 13.5049 32.244C8.72275 33.4288 -2.41701 34.1828 10.003 30.93C22.4231 27.6773 6.42977 30.4777 5.87928 29.4868C5.32879 28.4959 11.8247 26.988 16.3053 26.2125C18.5456 25.2647 7.64565 25.7386 8.93813 24.1445C10.2306 22.5505 34.7016 24.1445 34.7016 10.9181C34.7016 8.8071 29.7471 5.14507 24.0602 14.1924C28.67 -8.03822 43.0596 0.449063 45.1707 8.8071Z" fill="url(#paint0_linear_160_12)"/>
<path d="M31.34 39.0516C21.697 45.6864 13.5469 39.0516 13.5469 39.0516C13.5469 39.0516 24.9638 35.8635 31.34 29.1426C37.7162 22.4217 36.8977 18.2428 37.587 12.642C37.975 9.48956 39.3103 11.2201 39.3103 13.8051C39.5606 15.6848 38.8795 17.8357 39.181 18.3718C39.4826 18.908 41.6368 10.1 43.2739 8.85056C44.911 7.60116 42.3692 14.7528 42.3692 16.4762C42.3692 18.1996 44.6956 11.4788 45.9881 9.19532C47.2806 6.91184 47.4284 7.95976 46.8067 10.4015C46.1345 13.0414 44.7096 16.563 44.911 17.1225C45.2988 18.1996 47.8837 10.9617 49.1762 10.8325C50.4687 10.7032 47.5822 15.27 46.979 17.5534C46.3759 19.8367 49.607 15.0977 50.4687 15.0977C51.3304 15.0977 49.0039 19.1905 49.0039 19.1905C49.0039 19.1905 40.9831 32.4169 31.34 39.0516Z" fill="url(#paint1_linear_160_12)"/>
<path d="M7.17134 30.6498C6.55095 30.7187 5.73525 31.138 5.40495 31.3391C1.61375 25.9538 -0.994082 17.0118 0.364361 13.0291C6.05127 -3.64394 22.2074 0.750598 23.8875 14.1923C20.01 6.86824 13.2461 5.53269 10.3165 8.24688C7.60225 10.5303 6.00819 15.0539 9.58397 22.9811C5.65483 24.2908 9.58396 25.767 12.0397 26.3415C6.86984 27.2894 6.09435 27.6341 5.14653 28.668C4.54338 29.5728 5.40495 30.846 7.17134 30.6498Z" fill="url(#paint2_linear_160_12)"/>
<defs>
<linearGradient id="paint0_linear_160_12" x1="24.7494" y1="0" x2="24.7494" y2="38.609" gradientUnits="userSpaceOnUse">
<stop stop-color="#FCB207"/>
<stop offset="0.5" stop-color="#FF4A01"/>
<stop offset="1" stop-color="#DD0E22"/>
</linearGradient>
<linearGradient id="paint1_linear_160_12" x1="32.1035" y1="7.92871" x2="32.1035" y2="42.0004" gradientUnits="userSpaceOnUse">
<stop stop-color="#FCB207"/>
<stop offset="0.5" stop-color="#FF4A01"/>
<stop offset="1" stop-color="#DD0E22"/>
</linearGradient>
<linearGradient id="paint2_linear_160_12" x1="11.9437" y1="2.22266" x2="11.9437" y2="31.3391" gradientUnits="userSpaceOnUse">
<stop stop-color="#FCB207"/>
<stop offset="0.5" stop-color="#FF4A01"/>
<stop offset="1" stop-color="#DD0E22"/>
</linearGradient>
</defs>
</svg>
