<svg width="296" height="43" viewBox="0 0 296 43" fill="none" xmlns="http://www.w3.org/2000/svg">
<path d="M45.1707 9.3071C44.9294 9.34156 44.6824 10.0251 44.6106 10.298C44.5244 9.09168 44.5216 8.50649 43.6628 8.35928C42.1549 8.10078 40.7332 12.2367 39.8715 14.5632C40.3454 11.5905 37.7605 7.92845 36.6834 13.2707C36.4457 16.3352 35.9079 20.2501 34.7016 22.835C30.0774 32.744 13.4188 39.6373 11.8247 39.0772C10.2307 38.5171 16.0038 36.4296 15.1421 35.3721C14.2804 34.3146 12.7725 36.4922 8.20576 36.6646C3.639 36.8369 18.2871 31.5593 13.5049 32.744C8.72275 33.9288 -2.41701 34.6828 10.003 31.43C22.4231 28.1773 6.42977 30.9777 5.87928 29.9868C5.32879 28.9959 11.8247 27.488 16.3053 26.7125C18.5456 25.7647 7.64565 26.2386 8.93813 24.6445C10.2306 23.0505 34.7016 24.6445 34.7016 11.4181C34.7016 9.3071 29.7471 5.64507 24.0602 14.6924C28.67 -7.53822 43.0596 0.949063 45.1707 9.3071Z" fill="white"/>
<path d="M31.34 39.5506C21.697 46.1854 13.5469 39.5506 13.5469 39.5506C13.5469 39.5506 24.9638 36.3625 31.34 29.6416C37.7162 22.9207 36.8977 18.7418 37.587 13.141C37.975 9.98859 39.3103 11.7191 39.3103 14.3041C39.5606 16.1838 38.8795 18.3347 39.181 18.8708C39.4826 19.407 41.6368 10.599 43.2739 9.34958C44.911 8.10019 42.3692 15.2518 42.3692 16.9752C42.3692 18.6986 44.6956 11.9778 45.9881 9.69434C47.2806 7.41086 47.4284 8.45878 46.8067 10.9006C46.1345 13.5404 44.7096 17.062 44.911 17.6216C45.2988 18.6986 47.8837 11.4607 49.1762 11.3315C50.4687 11.2023 47.5822 15.769 46.979 18.0524C46.3759 20.3358 49.607 15.5967 50.4687 15.5967C51.3304 15.5967 49.0039 19.6895 49.0039 19.6895C49.0039 19.6895 40.9831 32.9159 31.34 39.5506Z" fill="white"/>
<path d="M7.17134 31.1498C6.55095 31.2187 5.73525 31.638 5.40495 31.8391C1.61375 26.4538 -0.994082 17.5118 0.364361 13.5291C6.05127 -3.14394 22.2074 1.2506 23.8875 14.6923C20.01 7.36824 13.2461 6.03269 10.3165 8.74688C7.60225 11.0303 6.00819 15.5539 9.58397 23.4811C5.65483 24.7908 9.58396 26.267 12.0397 26.8415C6.86984 27.7894 6.09435 28.1341 5.14653 29.168C4.54338 30.0728 5.40495 31.346 7.17134 31.1498Z" fill="white"/>
<path d="M78.4386 27.908C78.4386 29.236 78.2706 30.444 77.9346 31.532C77.6146 32.604 77.1186 33.532 76.4466 34.316C75.7906 35.1 74.9426 35.7 73.9026 36.116C72.8786 36.532 71.6706 36.74 70.2786 36.74C68.8866 36.74 67.6706 36.532 66.6306 36.116C65.6066 35.684 64.7586 35.084 64.0866 34.316C63.4306 33.532 62.9346 32.596 62.5986 31.508C62.2786 30.42 62.1186 29.212 62.1186 27.884C62.1186 26.108 62.4066 24.564 62.9826 23.252C63.5746 21.94 64.4706 20.924 65.6706 20.204C66.8866 19.468 68.4306 19.1 70.3026 19.1C72.1586 19.1 73.6866 19.468 74.8866 20.204C76.0866 20.924 76.9746 21.948 77.5506 23.276C78.1426 24.588 78.4386 26.132 78.4386 27.908ZM65.9346 27.908C65.9346 29.108 66.0866 30.14 66.3906 31.004C66.6946 31.868 67.1666 32.532 67.8066 32.996C68.4466 33.46 69.2706 33.692 70.2786 33.692C71.3186 33.692 72.1506 33.46 72.7746 32.996C73.4146 32.532 73.8786 31.868 74.1666 31.004C74.4706 30.14 74.6226 29.108 74.6226 27.908C74.6226 26.1 74.2866 24.684 73.6146 23.66C72.9426 22.636 71.8386 22.124 70.3026 22.124C69.2786 22.124 68.4466 22.356 67.8066 22.82C67.1666 23.284 66.6946 23.948 66.3906 24.812C66.0866 25.676 65.9346 26.708 65.9346 27.908ZM87.8616 36.5H84.2376V22.388H79.5816V19.364H92.5176V22.388H87.8616V36.5ZM109.128 36.5H105L98.784 27.812V36.5H95.16V19.364H98.784V27.668L104.928 19.364H108.792L102.552 27.596L109.128 36.5ZM116.757 19.364C118.965 19.364 120.573 19.844 121.581 20.804C122.605 21.748 123.117 23.052 123.117 24.716C123.117 25.468 123.005 26.188 122.781 26.876C122.557 27.548 122.181 28.156 121.653 28.7C121.141 29.228 120.461 29.644 119.613 29.948C118.765 30.252 117.717 30.404 116.469 30.404H114.909V36.5H111.285V19.364H116.757ZM116.565 22.34H114.909V27.428H116.109C116.797 27.428 117.389 27.34 117.885 27.164C118.381 26.988 118.765 26.708 119.037 26.324C119.309 25.94 119.445 25.444 119.445 24.836C119.445 23.988 119.213 23.364 118.749 22.964C118.285 22.548 117.557 22.34 116.565 22.34ZM126.355 36.5V19.364H129.979V25.94H131.155C132.739 25.94 134.043 26.164 135.067 26.612C136.091 27.06 136.843 27.676 137.323 28.46C137.819 29.244 138.067 30.14 138.067 31.148C138.067 32.268 137.819 33.228 137.323 34.028C136.827 34.828 136.059 35.444 135.019 35.876C133.995 36.292 132.667 36.5 131.035 36.5H126.355ZM130.939 33.524C132.011 33.524 132.851 33.348 133.459 32.996C134.083 32.644 134.395 32.028 134.395 31.148C134.395 30.54 134.251 30.076 133.963 29.756C133.691 29.436 133.283 29.22 132.739 29.108C132.195 28.98 131.539 28.916 130.771 28.916H129.979V33.524H130.939ZM140.155 36.5V19.364H143.779V36.5H140.155ZM154.705 36.5H151.081V22.388H146.425V19.364H159.361V22.388H154.705V36.5ZM162.004 36.5V19.364H165.628V25.94H166.804C168.388 25.94 169.692 26.164 170.716 26.612C171.74 27.06 172.492 27.676 172.972 28.46C173.468 29.244 173.716 30.14 173.716 31.148C173.716 32.268 173.468 33.228 172.972 34.028C172.476 34.828 171.708 35.444 170.668 35.876C169.644 36.292 168.316 36.5 166.684 36.5H162.004ZM166.588 33.524C167.66 33.524 168.5 33.348 169.108 32.996C169.732 32.644 170.044 32.028 170.044 31.148C170.044 30.54 169.9 30.076 169.612 29.756C169.34 29.436 168.932 29.22 168.388 29.108C167.844 28.98 167.188 28.916 166.42 28.916H165.628V33.524H166.588ZM175.804 36.5V19.364H179.428V36.5H175.804ZM193.618 36.5H183.754V19.364H193.618V22.34H187.378V26.108H193.186V29.084H187.378V33.5H193.618V36.5ZM209.026 22.148C208.338 22.148 207.722 22.284 207.178 22.556C206.65 22.828 206.202 23.22 205.834 23.732C205.466 24.228 205.186 24.836 204.994 25.556C204.818 26.276 204.73 27.084 204.73 27.98C204.73 29.196 204.874 30.236 205.162 31.1C205.466 31.948 205.938 32.596 206.578 33.044C207.218 33.492 208.034 33.716 209.026 33.716C209.73 33.716 210.426 33.636 211.114 33.476C211.818 33.316 212.578 33.092 213.394 32.804V35.852C212.642 36.156 211.898 36.38 211.162 36.524C210.426 36.668 209.602 36.74 208.69 36.74C206.93 36.74 205.474 36.38 204.322 35.66C203.186 34.924 202.346 33.9 201.802 32.588C201.258 31.26 200.986 29.716 200.986 27.956C200.986 26.66 201.162 25.476 201.514 24.404C201.866 23.316 202.378 22.38 203.05 21.596C203.738 20.812 204.578 20.204 205.57 19.772C206.578 19.34 207.73 19.124 209.026 19.124C209.874 19.124 210.722 19.236 211.57 19.46C212.434 19.668 213.258 19.956 214.042 20.324L212.866 23.276C212.226 22.972 211.578 22.708 210.922 22.484C210.282 22.26 209.65 22.148 209.026 22.148ZM226.899 36.5H217.035V19.364H226.899V22.34H220.659V26.108H226.467V29.084H220.659V33.5H226.899V36.5ZM235.937 19.364C238.145 19.364 239.753 19.844 240.761 20.804C241.785 21.748 242.297 23.052 242.297 24.716C242.297 25.468 242.185 26.188 241.961 26.876C241.737 27.548 241.361 28.156 240.833 28.7C240.321 29.228 239.641 29.644 238.793 29.948C237.945 30.252 236.897 30.404 235.649 30.404H234.089V36.5H230.465V19.364H235.937ZM235.745 22.34H234.089V27.428H235.289C235.977 27.428 236.569 27.34 237.065 27.164C237.561 26.988 237.945 26.708 238.217 26.324C238.489 25.94 238.625 25.444 238.625 24.836C238.625 23.988 238.393 23.364 237.929 22.964C237.465 22.548 236.737 22.34 235.745 22.34ZM257.521 19.364V33.476H259.801V41.492H256.297V36.5H245.569V41.492H242.065V33.476H243.385C243.833 32.58 244.265 31.636 244.681 30.644C245.097 29.652 245.481 28.588 245.833 27.452C246.201 26.316 246.529 25.084 246.817 23.756C247.105 22.412 247.345 20.948 247.537 19.364H257.521ZM250.417 22.388C250.305 23.22 250.145 24.108 249.937 25.052C249.729 25.98 249.481 26.932 249.193 27.908C248.921 28.884 248.617 29.844 248.281 30.788C247.945 31.732 247.585 32.628 247.201 33.476H253.897V22.388H250.417ZM278.537 33.62V41.492H275.033V36.5H262.433V19.364H266.057V33.476H272.369V19.364H275.993V33.62H278.537ZM291.671 36.5L290.423 32.42H284.183L282.935 36.5H279.023L285.071 19.292H289.511L295.583 36.5H291.671ZM288.311 25.388C288.231 25.116 288.127 24.772 287.999 24.356C287.871 23.94 287.743 23.516 287.615 23.084C287.487 22.652 287.383 22.276 287.303 21.956C287.223 22.276 287.111 22.676 286.967 23.156C286.839 23.62 286.711 24.068 286.583 24.5C286.471 24.916 286.383 25.212 286.319 25.388L285.095 29.372H289.559L288.311 25.388Z" fill="white"/>
</svg>
