<svg width="53" height="53" viewBox="0 0 53 53" fill="none" xmlns="http://www.w3.org/2000/svg">
<circle cx="26.5" cy="26.5" r="25.5" stroke="#2D0F12" stroke-width="2"/>
<path fill-rule="evenodd" clip-rule="evenodd" d="M27.2799 15.8C29.1577 15.8 30.6799 14.2778 30.6799 12.4C30.6799 10.5222 29.1577 9 27.2799 9C25.4021 9 23.8799 10.5222 23.8799 12.4C23.8799 14.2778 25.4021 15.8 27.2799 15.8ZM27.2799 14.1C28.2188 14.1 28.9799 13.3389 28.9799 12.4C28.9799 11.4611 28.2188 10.7 27.2799 10.7C26.341 10.7 25.5799 11.4611 25.5799 12.4C25.5799 13.3389 26.341 14.1 27.2799 14.1Z" fill="#2D0F12"/>
<path d="M27.1288 16.3859V40.7299C27.1288 40.9552 28.42 41.1276 28.1947 41.1257C22.8032 41.0781 16.7806 40.1103 13.3376 39.2441C12.871 39.1267 12.9063 37.9211 13.3313 37.6957C16.8981 35.8046 17.3658 30.5517 17.6088 26.1779C18.1316 16.7675 23.58 16.0437 27 16C27.2253 15.9972 27.1288 16.1605 27.1288 16.3859Z" fill="#2D0F12"/>
<path d="M27.1288 16.3859V40.7299C27.1288 40.9552 25.6469 41.0784 28.1947 41.1257C33.5862 41.0781 37.477 40.1103 40.92 39.2441C41.3866 39.1267 41.3513 37.9211 40.9262 37.6957C37.3594 35.8046 36.8918 30.5517 36.6488 26.1779C36.126 16.7675 30.42 16.0437 27 16C26.7747 15.9972 27.1288 16.1605 27.1288 16.3859Z" fill="#2D0F12"/>
<path fill-rule="evenodd" clip-rule="evenodd" d="M23.9097 41.6104C24.7452 41.6795 25.5842 41.7344 26.4177 41.7721C26.5593 41.8027 26.9423 41.8255 27.7331 41.8405C27.977 41.8383 28.2193 41.8344 28.4601 41.8287L28.4601 41.8287C28.4688 41.8288 28.4754 41.8286 28.4801 41.8282C29.2124 41.8107 29.93 41.7776 30.6325 41.7312C30.361 43.3373 28.9635 44.5605 27.2802 44.5605C25.5549 44.5605 24.1298 43.2755 23.9097 41.6104Z" fill="#2D0F12"/>
</svg>
