<svg width="497" height="409" viewBox="0 0 497 409" fill="none" xmlns="http://www.w3.org/2000/svg">
<g filter="url(#filter0_f_286_2)">
<path d="M452 204.5C452 308.606 364.248 393 256 393C147.752 393 60 308.606 60 204.5C60 100.394 147.752 16 256 16C364.248 16 452 100.394 452 204.5Z" fill="#FEFEFE"/>
</g>
<g filter="url(#filter1_f_286_2)">
<path d="M441 202.811C441 298.908 359.068 376.811 258 376.811C156.932 376.811 75 298.908 75 202.811C75 106.713 156.932 28.8106 258 28.8106C359.068 28.8106 441 106.713 441 202.811Z" fill="#F6F5F5"/>
</g>
<g filter="url(#filter2_f_286_2)">
<ellipse cx="255.5" cy="205.5" rx="155.5" ry="139.5" fill="#EDEDED"/>
</g>
<rect x="141.5" y="181.5" width="227" height="122" rx="6.5" stroke="#878787" stroke-width="9"/>
<line x1="148.127" y1="186.278" x2="238.278" y2="236.873" stroke="#878787" stroke-width="9" stroke-linecap="round"/>
<line x1="360.257" y1="187.121" x2="271.121" y2="236.743" stroke="#878787" stroke-width="9" stroke-linecap="round"/>
<line x1="362.75" y1="300.197" x2="258.197" y2="229.25" stroke="#878787" stroke-width="9" stroke-linecap="round"/>
<line x1="144.321" y1="301.775" x2="256.775" y2="228.679" stroke="#878787" stroke-width="9" stroke-linecap="round"/>
<line x1="339.344" y1="160.497" x2="366.497" y2="183.656" stroke="#878787" stroke-width="9" stroke-linecap="round"/>
<line x1="170.007" y1="164.286" x2="144.286" y2="182.993" stroke="#878787" stroke-width="9" stroke-linecap="round"/>
<line x1="173.5" y1="93.5" x2="337.5" y2="93.5" stroke="#878787" stroke-width="9" stroke-linecap="round"/>
<line x1="173.5" y1="94.5" x2="173.5" y2="198.5" stroke="#878787" stroke-width="9" stroke-linecap="round"/>
<line x1="337.5" y1="94.5" x2="337.5" y2="198.5" stroke="#878787" stroke-width="9" stroke-linecap="round"/>
<rect x="178" y="98" width="155" height="96" fill="#EDEDED"/>
<path d="M256.013 182.81C249.425 182.81 243.701 181.703 238.841 179.489C233.981 177.275 230.201 174.143 227.501 170.093C224.855 165.989 223.532 161.156 223.532 155.594C223.532 150.95 224.342 146.657 225.962 142.715C227.582 138.719 229.958 135.236 233.09 132.266C236.276 129.296 240.164 127.001 244.754 125.381C249.398 123.707 254.744 122.87 260.792 122.87C266.57 122.87 271.592 123.842 275.858 125.786C280.178 127.676 283.526 130.349 285.902 133.805C288.278 137.261 289.466 141.311 289.466 145.955C289.466 149.033 288.926 152.003 287.846 154.865C286.82 157.727 285.389 160.292 283.553 162.56C281.717 164.774 279.611 166.529 277.235 167.825C274.859 169.121 272.375 169.769 269.783 169.769C267.569 169.769 265.733 169.31 264.275 168.392C262.817 167.474 261.818 166.286 261.278 164.828C260.738 163.316 260.738 161.669 261.278 159.887L261.197 161.588C260.009 164.072 258.362 166.043 256.256 167.501C254.15 168.959 251.801 169.688 249.209 169.688C245.753 169.688 242.945 168.446 240.785 165.962C238.679 163.424 237.626 160.076 237.626 155.918C237.626 153.164 238.058 150.572 238.922 148.142C239.84 145.658 241.055 143.498 242.567 141.662C244.133 139.772 245.915 138.314 247.913 137.288C249.965 136.208 252.152 135.668 254.474 135.668C257.984 135.668 260.549 136.613 262.169 138.503C263.843 140.339 264.491 142.607 264.113 145.307L263.384 145.226L265.166 138.422H275.696L271.241 155.594C270.647 157.916 270.458 159.644 270.674 160.778C270.89 161.858 271.565 162.398 272.699 162.398C273.887 162.398 274.994 161.993 276.02 161.183C277.1 160.319 278.045 159.185 278.855 157.781C279.665 156.323 280.286 154.676 280.718 152.84C281.204 150.95 281.447 148.979 281.447 146.927C281.447 143.201 280.61 140.123 278.936 137.693C277.262 135.209 274.859 133.346 271.727 132.104C268.649 130.862 264.95 130.241 260.63 130.241C255.662 130.241 251.342 130.889 247.67 132.185C244.052 133.427 241.055 135.182 238.679 137.45C236.303 139.718 234.521 142.391 233.333 145.469C232.199 148.547 231.632 151.868 231.632 155.432C231.632 159.59 232.604 163.181 234.548 166.205C236.492 169.175 239.246 171.47 242.81 173.09C246.374 174.656 250.586 175.439 255.446 175.439C258.2 175.439 260.954 175.169 263.708 174.629C266.516 174.089 269.297 173.306 272.051 172.28L274.724 179.165C272.078 180.353 269.162 181.271 265.976 181.919C262.79 182.513 259.469 182.81 256.013 182.81ZM254.069 161.102C255.149 161.102 256.121 160.859 256.985 160.373C257.903 159.887 258.686 159.212 259.334 158.348C260.036 157.484 260.576 156.458 260.954 155.27C261.332 154.082 261.521 152.786 261.521 151.382C261.521 149.114 261.035 147.359 260.063 146.117C259.091 144.875 257.741 144.254 256.013 144.254C254.933 144.254 253.934 144.497 253.016 144.983C252.098 145.469 251.288 146.171 250.586 147.089C249.884 147.953 249.344 148.979 248.966 150.167C248.588 151.301 248.399 152.57 248.399 153.974C248.399 156.296 248.912 158.078 249.938 159.32C251.018 160.508 252.395 161.102 254.069 161.102Z" fill="#878787"/>
<path d="M395 186C395 199.255 384.255 210 371 210C357.745 210 347 199.255 347 186C347 172.745 357.745 162 371 162C384.255 162 395 172.745 395 186Z" fill="#FF4A01"/>
<path d="M370.264 197V178.184L370.808 178.664C370.488 179.325 370.029 179.944 369.432 180.52C368.834 181.075 368.13 181.555 367.32 181.96C366.53 182.344 365.645 182.632 364.664 182.824V178.024C365.453 177.917 366.274 177.661 367.128 177.256C367.981 176.829 368.749 176.328 369.432 175.752C370.136 175.155 370.637 174.557 370.936 173.96H375.064V197H370.264Z" fill="#E7E7E7"/>
<path d="M492.5 335.5L4.5 335.5" stroke="#878787" stroke-width="9" stroke-linecap="round"/>
<defs>
<filter id="filter0_f_286_2" x="44.9" y="0.9" width="422.2" height="407.2" filterUnits="userSpaceOnUse" color-interpolation-filters="sRGB">
<feFlood flood-opacity="0" result="BackgroundImageFix"/>
<feBlend mode="normal" in="SourceGraphic" in2="BackgroundImageFix" result="shape"/>
<feGaussianBlur stdDeviation="7.55" result="effect1_foregroundBlur_286_2"/>
</filter>
<filter id="filter1_f_286_2" x="60.8" y="14.6105" width="394.4" height="376.4" filterUnits="userSpaceOnUse" color-interpolation-filters="sRGB">
<feFlood flood-opacity="0" result="BackgroundImageFix"/>
<feBlend mode="normal" in="SourceGraphic" in2="BackgroundImageFix" result="shape"/>
<feGaussianBlur stdDeviation="7.1" result="effect1_foregroundBlur_286_2"/>
</filter>
<filter id="filter2_f_286_2" x="82.5" y="48.5" width="346" height="314" filterUnits="userSpaceOnUse" color-interpolation-filters="sRGB">
<feFlood flood-opacity="0" result="BackgroundImageFix"/>
<feBlend mode="normal" in="SourceGraphic" in2="BackgroundImageFix" result="shape"/>
<feGaussianBlur stdDeviation="8.75" result="effect1_foregroundBlur_286_2"/>
</filter>
</defs>
</svg>
