<svg width="27" height="25" viewBox="0 0 27 25" fill="none" xmlns="http://www.w3.org/2000/svg">
<path fill-rule="evenodd" clip-rule="evenodd" d="M9.98886 9.91211C9.09422 10.7496 8.53516 11.9411 8.53516 13.2631C8.53516 15.7978 10.5903 17.8527 13.1255 17.8527C14.4477 17.8527 15.6394 17.2937 16.477 16.3992L15.0614 14.9837C14.5869 15.5168 13.8955 15.8527 13.1255 15.8527C11.6946 15.8527 10.5352 14.693 10.5352 13.2631C10.5352 12.4934 10.8711 11.802 11.4046 11.3276L9.98886 9.91211Z" fill="#878787"/>
<path fill-rule="evenodd" clip-rule="evenodd" d="M7.36742 6.23572C7.06046 5.92881 6.58573 5.85917 6.21654 6.08745C3.85545 7.54737 1.96006 9.62034 0.646009 11.5601C-0.0720279 12.62 0.0504366 13.999 0.833857 14.9444C6.12145 21.3248 11.2769 23.0411 15.7654 22.1409C17.2818 21.8368 18.6829 21.2408 19.9512 20.4671C20.4839 20.1421 20.5419 19.408 20.1007 18.9669C19.7562 18.6224 19.2174 18.5763 18.799 18.8257C17.739 19.4576 16.5903 19.9357 15.3721 20.18C11.8231 20.8917 7.35345 19.6771 2.37379 13.6682C2.12393 13.3667 2.11163 12.9625 2.30183 12.6818C3.49872 10.915 5.15659 9.12625 7.14286 7.86777C7.70783 7.50981 7.84039 6.70861 7.36742 6.23572ZM22.5112 17.1347C22.1226 16.7461 22.1225 16.1185 22.486 15.7064C23.0267 15.0935 23.5144 14.4581 23.9429 13.8255C24.1331 13.5447 24.1208 13.1406 23.871 12.839C19.4534 7.50849 15.4373 5.95087 12.1091 6.16402C11.7785 6.18519 11.4502 6.07556 11.216 5.84133L10.3142 4.93975C10.1216 4.74716 10.2123 4.41989 10.4794 4.36633C14.9679 3.46618 20.1233 5.18242 25.4109 11.5629C26.1943 12.5082 26.3168 13.8873 25.5987 14.9472C25.1136 15.6633 24.5493 16.3975 23.9116 17.1123C23.5422 17.5264 22.9036 17.527 22.5112 17.1347Z" fill="#878787"/>
<path d="M24.1416 23.7473L2.19531 1.80469" stroke="#878787" stroke-width="2" stroke-linecap="round"/>
</svg>
