<svg width="42" height="42" viewBox="0 0 42 42" fill="none" xmlns="http://www.w3.org/2000/svg">
<rect width="42" height="42" rx="10" fill="#FF4A01"/>
<path d="M26.6537 19.7888C26.6537 23.8034 23.3992 27.058 19.3845 27.058C15.3698 27.058 12.1152 23.8034 12.1152 19.7888C12.1152 15.7741 15.3698 12.5195 19.3845 12.5195C23.3992 12.5195 26.6537 15.7741 26.6537 19.7888Z" fill="#FF4A01"/>
<path d="M24.615 24.8368L27.1192 27.2895L29.6234 29.7422M26.6537 19.7888C26.6537 23.8034 23.3992 27.058 19.3845 27.058C15.3698 27.058 12.1152 23.8034 12.1152 19.7888C12.1152 15.7741 15.3698 12.5195 19.3845 12.5195C23.3992 12.5195 26.6537 15.7741 26.6537 19.7888Z" stroke="white" stroke-width="2" stroke-linecap="round"/>
</svg>
