<svg width="296" height="42" viewBox="0 0 296 42" fill="none" xmlns="http://www.w3.org/2000/svg">
<path d="M45.1707 8.8071C44.9294 8.84156 44.6824 9.52514 44.6106 9.79799C44.5244 8.59168 44.5216 8.00649 43.6628 7.85928C42.1549 7.60078 40.7332 11.7367 39.8715 14.0632C40.3454 11.0905 37.7605 7.42845 36.6834 12.7707C36.4457 15.8352 35.9079 19.7501 34.7016 22.335C30.0774 32.244 13.4188 39.1373 11.8247 38.5772C10.2307 38.0171 16.0038 35.9296 15.1421 34.8721C14.2804 33.8146 12.7725 35.9922 8.20576 36.1646C3.639 36.3369 18.2871 31.0593 13.5049 32.244C8.72275 33.4288 -2.41701 34.1828 10.003 30.93C22.4231 27.6773 6.42977 30.4777 5.87928 29.4868C5.32879 28.4959 11.8247 26.988 16.3053 26.2125C18.5456 25.2647 7.64565 25.7386 8.93813 24.1445C10.2306 22.5505 34.7016 24.1445 34.7016 10.9181C34.7016 8.8071 29.7471 5.14507 24.0602 14.1924C28.67 -8.03822 43.0596 0.449063 45.1707 8.8071Z" fill="url(#paint0_linear_18_17)"/>
<path d="M31.34 39.0511C21.697 45.6859 13.5469 39.0511 13.5469 39.0511C13.5469 39.0511 24.9638 35.863 31.34 29.1421C37.7162 22.4212 36.8977 18.2423 37.587 12.6415C37.975 9.48907 39.3103 11.2196 39.3103 13.8046C39.5606 15.6843 38.8795 17.8352 39.181 18.3713C39.4826 18.9075 41.6368 10.0995 43.2739 8.85007C44.911 7.60067 42.3692 14.7523 42.3692 16.4757C42.3692 18.1991 44.6956 11.4783 45.9881 9.19483C47.2806 6.91135 47.4284 7.95927 46.8067 10.401C46.1345 13.0409 44.7096 16.5625 44.911 17.1221C45.2988 18.1991 47.8837 10.9612 49.1762 10.832C50.4687 10.7027 47.5822 15.2695 46.979 17.5529C46.3759 19.8363 49.607 15.0972 50.4687 15.0972C51.3304 15.0972 49.0039 19.19 49.0039 19.19C49.0039 19.19 40.9831 32.4164 31.34 39.0511Z" fill="url(#paint1_linear_18_17)"/>
<path d="M7.17134 30.6498C6.55095 30.7187 5.73525 31.138 5.40495 31.3391C1.61375 25.9538 -0.994082 17.0118 0.364361 13.0291C6.05127 -3.64394 22.2074 0.750598 23.8875 14.1923C20.01 6.86824 13.2461 5.53269 10.3165 8.24688C7.60225 10.5303 6.00819 15.0539 9.58397 22.9811C5.65483 24.2908 9.58396 25.767 12.0397 26.3415C6.86984 27.2894 6.09435 27.6341 5.14653 28.668C4.54338 29.5728 5.40495 30.846 7.17134 30.6498Z" fill="url(#paint2_linear_18_17)"/>
<path d="M78.7784 25.408C78.7784 26.736 78.6104 27.944 78.2744 29.032C77.9544 30.104 77.4584 31.032 76.7864 31.816C76.1304 32.6 75.2824 33.2 74.2424 33.616C73.2184 34.032 72.0104 34.24 70.6184 34.24C69.2264 34.24 68.0104 34.032 66.9704 33.616C65.9464 33.184 65.0984 32.584 64.4264 31.816C63.7704 31.032 63.2744 30.096 62.9384 29.008C62.6184 27.92 62.4584 26.712 62.4584 25.384C62.4584 23.608 62.7464 22.064 63.3224 20.752C63.9144 19.44 64.8104 18.424 66.0104 17.704C67.2264 16.968 68.7704 16.6 70.6424 16.6C72.4984 16.6 74.0264 16.968 75.2264 17.704C76.4264 18.424 77.3144 19.448 77.8904 20.776C78.4824 22.088 78.7784 23.632 78.7784 25.408ZM66.2744 25.408C66.2744 26.608 66.4264 27.64 66.7304 28.504C67.0344 29.368 67.5064 30.032 68.1464 30.496C68.7864 30.96 69.6104 31.192 70.6184 31.192C71.6584 31.192 72.4904 30.96 73.1144 30.496C73.7544 30.032 74.2184 29.368 74.5064 28.504C74.8104 27.64 74.9624 26.608 74.9624 25.408C74.9624 23.6 74.6264 22.184 73.9544 21.16C73.2824 20.136 72.1784 19.624 70.6424 19.624C69.6184 19.624 68.7864 19.856 68.1464 20.32C67.5064 20.784 67.0344 21.448 66.7304 22.312C66.4264 23.176 66.2744 24.208 66.2744 25.408ZM88.2014 34H84.5774V19.888H79.9214V16.864H92.8574V19.888H88.2014V34ZM109.468 34H105.34L99.1238 25.312V34H95.4998V16.864H99.1238V25.168L105.268 16.864H109.132L102.892 25.096L109.468 34ZM117.097 16.864C119.305 16.864 120.913 17.344 121.921 18.304C122.945 19.248 123.457 20.552 123.457 22.216C123.457 22.968 123.345 23.688 123.121 24.376C122.897 25.048 122.521 25.656 121.993 26.2C121.481 26.728 120.801 27.144 119.953 27.448C119.105 27.752 118.057 27.904 116.809 27.904H115.249V34H111.625V16.864H117.097ZM116.905 19.84H115.249V24.928H116.449C117.137 24.928 117.729 24.84 118.225 24.664C118.721 24.488 119.105 24.208 119.377 23.824C119.649 23.44 119.785 22.944 119.785 22.336C119.785 21.488 119.553 20.864 119.089 20.464C118.625 20.048 117.897 19.84 116.905 19.84ZM126.695 34V16.864H130.319V23.44H131.495C133.079 23.44 134.383 23.664 135.407 24.112C136.431 24.56 137.183 25.176 137.663 25.96C138.159 26.744 138.407 27.64 138.407 28.648C138.407 29.768 138.159 30.728 137.663 31.528C137.167 32.328 136.399 32.944 135.359 33.376C134.335 33.792 133.007 34 131.375 34H126.695ZM131.279 31.024C132.351 31.024 133.191 30.848 133.799 30.496C134.423 30.144 134.735 29.528 134.735 28.648C134.735 28.04 134.591 27.576 134.303 27.256C134.031 26.936 133.623 26.72 133.079 26.608C132.535 26.48 131.879 26.416 131.111 26.416H130.319V31.024H131.279ZM140.495 34V16.864H144.119V34H140.495ZM155.045 34H151.421V19.888H146.765V16.864H159.701V19.888H155.045V34ZM162.344 34V16.864H165.968V23.44H167.144C168.728 23.44 170.032 23.664 171.056 24.112C172.08 24.56 172.832 25.176 173.312 25.96C173.808 26.744 174.056 27.64 174.056 28.648C174.056 29.768 173.808 30.728 173.312 31.528C172.816 32.328 172.048 32.944 171.008 33.376C169.984 33.792 168.656 34 167.024 34H162.344ZM166.928 31.024C168 31.024 168.84 30.848 169.448 30.496C170.072 30.144 170.384 29.528 170.384 28.648C170.384 28.04 170.24 27.576 169.952 27.256C169.68 26.936 169.272 26.72 168.728 26.608C168.184 26.48 167.528 26.416 166.76 26.416H165.968V31.024H166.928ZM176.144 34V16.864H179.768V34H176.144ZM193.958 34H184.094V16.864H193.958V19.84H187.718V23.608H193.526V26.584H187.718V31H193.958V34ZM209.366 19.648C208.678 19.648 208.062 19.784 207.518 20.056C206.99 20.328 206.542 20.72 206.174 21.232C205.806 21.728 205.526 22.336 205.334 23.056C205.158 23.776 205.07 24.584 205.07 25.48C205.07 26.696 205.214 27.736 205.502 28.6C205.806 29.448 206.278 30.096 206.918 30.544C207.558 30.992 208.374 31.216 209.366 31.216C210.07 31.216 210.766 31.136 211.454 30.976C212.158 30.816 212.918 30.592 213.734 30.304V33.352C212.982 33.656 212.238 33.88 211.502 34.024C210.766 34.168 209.942 34.24 209.03 34.24C207.27 34.24 205.814 33.88 204.662 33.16C203.526 32.424 202.686 31.4 202.142 30.088C201.598 28.76 201.326 27.216 201.326 25.456C201.326 24.16 201.502 22.976 201.854 21.904C202.206 20.816 202.718 19.88 203.39 19.096C204.078 18.312 204.918 17.704 205.91 17.272C206.918 16.84 208.07 16.624 209.366 16.624C210.214 16.624 211.062 16.736 211.91 16.96C212.774 17.168 213.598 17.456 214.382 17.824L213.206 20.776C212.566 20.472 211.918 20.208 211.262 19.984C210.622 19.76 209.99 19.648 209.366 19.648ZM227.239 34H217.375V16.864H227.239V19.84H220.999V23.608H226.807V26.584H220.999V31H227.239V34ZM236.277 16.864C238.485 16.864 240.093 17.344 241.101 18.304C242.125 19.248 242.637 20.552 242.637 22.216C242.637 22.968 242.525 23.688 242.301 24.376C242.077 25.048 241.701 25.656 241.173 26.2C240.661 26.728 239.981 27.144 239.133 27.448C238.285 27.752 237.237 27.904 235.989 27.904H234.429V34H230.805V16.864H236.277ZM236.085 19.84H234.429V24.928H235.629C236.317 24.928 236.909 24.84 237.405 24.664C237.901 24.488 238.285 24.208 238.557 23.824C238.829 23.44 238.965 22.944 238.965 22.336C238.965 21.488 238.733 20.864 238.269 20.464C237.805 20.048 237.077 19.84 236.085 19.84ZM257.861 16.864V30.976H260.141V38.992H256.637V34H245.909V38.992H242.405V30.976H243.725C244.173 30.08 244.605 29.136 245.021 28.144C245.437 27.152 245.821 26.088 246.173 24.952C246.541 23.816 246.869 22.584 247.157 21.256C247.445 19.912 247.685 18.448 247.877 16.864H257.861ZM250.757 19.888C250.645 20.72 250.485 21.608 250.277 22.552C250.069 23.48 249.821 24.432 249.533 25.408C249.261 26.384 248.957 27.344 248.621 28.288C248.285 29.232 247.925 30.128 247.541 30.976H254.237V19.888H250.757ZM278.877 31.12V38.992H275.373V34H262.773V16.864H266.397V30.976H272.709V16.864H276.333V31.12H278.877ZM292.011 34L290.763 29.92H284.523L283.275 34H279.363L285.411 16.792H289.851L295.923 34H292.011ZM288.651 22.888C288.571 22.616 288.467 22.272 288.339 21.856C288.211 21.44 288.083 21.016 287.955 20.584C287.827 20.152 287.723 19.776 287.643 19.456C287.563 19.776 287.451 20.176 287.307 20.656C287.179 21.12 287.051 21.568 286.923 22C286.811 22.416 286.723 22.712 286.659 22.888L285.435 26.872H289.899L288.651 22.888Z" fill="url(#paint3_linear_18_17)"/>
<defs>
<linearGradient id="paint0_linear_18_17" x1="24.7494" y1="0" x2="24.7494" y2="38.609" gradientUnits="userSpaceOnUse">
<stop stop-color="#FCB207"/>
<stop offset="0.5" stop-color="#FF4A01"/>
<stop offset="1" stop-color="#DD0E22"/>
</linearGradient>
<linearGradient id="paint1_linear_18_17" x1="32.1035" y1="7.92822" x2="32.1035" y2="41.9999" gradientUnits="userSpaceOnUse">
<stop stop-color="#FCB207"/>
<stop offset="0.5" stop-color="#FF4A01"/>
<stop offset="1" stop-color="#DD0E22"/>
</linearGradient>
<linearGradient id="paint2_linear_18_17" x1="11.9437" y1="2.22266" x2="11.9437" y2="31.3391" gradientUnits="userSpaceOnUse">
<stop stop-color="#FCB207"/>
<stop offset="0.5" stop-color="#FF4A01"/>
<stop offset="1" stop-color="#DD0E22"/>
</linearGradient>
<linearGradient id="paint3_linear_18_17" x1="178.167" y1="16.6023" x2="178.167" y2="34.0682" gradientUnits="userSpaceOnUse">
<stop stop-color="#FCB207"/>
<stop offset="0.564937" stop-color="#FF4A01"/>
<stop offset="1" stop-color="#DD0E22"/>
</linearGradient>
</defs>
</svg>
