<svg width="27" height="25" viewBox="0 0 27 25" fill="none" xmlns="http://www.w3.org/2000/svg">
<path fill-rule="evenodd" clip-rule="evenodd" d="M9.98886 9.37793C9.09422 10.2154 8.53516 11.4069 8.53516 12.7289C8.53516 15.2637 10.5903 17.3185 13.1255 17.3185C14.4477 17.3185 15.6394 16.7595 16.477 15.865L15.0614 14.4496C14.5869 14.9826 13.8955 15.3185 13.1255 15.3185C11.6946 15.3185 10.5352 14.1588 10.5352 12.7289C10.5352 11.9592 10.8711 11.2678 11.4046 10.7934L9.98886 9.37793Z" fill="#878787"/>
<path fill-rule="evenodd" clip-rule="evenodd" d="M7.36742 5.70154C7.06046 5.39463 6.58573 5.32499 6.21654 5.55327C3.85545 7.01319 1.96006 9.08616 0.646009 11.0259C-0.0720279 12.0858 0.0504366 13.4648 0.833857 14.4102C6.12145 20.7906 11.2769 22.5069 15.7654 21.6067C17.2818 21.3026 18.6829 20.7066 19.9512 19.9329C20.4839 19.608 20.5419 18.8738 20.1007 18.4327C19.7562 18.0882 19.2174 18.0421 18.799 18.2915C17.739 18.9234 16.5903 19.4015 15.3721 19.6458C11.8231 20.3575 7.35345 19.1429 2.37379 13.134C2.12393 12.8325 2.11163 12.4284 2.30183 12.1476C3.49872 10.3808 5.15659 8.59207 7.14286 7.33359C7.70783 6.97563 7.84039 6.17443 7.36742 5.70154ZM22.5112 16.6005C22.1226 16.212 22.1225 15.5843 22.486 15.1722C23.0267 14.5593 23.5144 13.9239 23.9429 13.2913C24.1331 13.0105 24.1208 12.6064 23.871 12.3049C19.4534 6.97431 15.4373 5.41669 12.1091 5.62984C11.7785 5.65101 11.4502 5.54138 11.216 5.30715L10.3142 4.40557C10.1216 4.21298 10.2123 3.88571 10.4794 3.83215C14.9679 2.932 20.1233 4.64824 25.4109 11.0287C26.1943 11.974 26.3168 13.3531 25.5987 14.413C25.1136 15.1291 24.5493 15.8633 23.9116 16.5782C23.5422 16.9922 22.9036 16.9928 22.5112 16.6005Z" fill="#878787"/>
<path d="M24.1415 23.2131L2.19519 1.27051" stroke="#878787" stroke-width="2" stroke-linecap="round"/>
</svg>
