<svg width="498" height="252" viewBox="0 0 498 252" fill="none" xmlns="http://www.w3.org/2000/svg">
<path d="M140 92.5H354C357.59 92.5 360.5 95.4101 360.5 99V208C360.5 211.59 357.59 214.5 354 214.5H140C136.41 214.5 133.5 211.59 133.5 208V99C133.5 95.4101 136.41 92.5 140 92.5Z" stroke="#878787" stroke-width="9"/>
<line x1="140.127" y1="97.2781" x2="230.278" y2="147.873" stroke="#878787" stroke-width="9" stroke-linecap="round"/>
<line x1="352.257" y1="98.1206" x2="263.121" y2="147.743" stroke="#878787" stroke-width="9" stroke-linecap="round"/>
<line x1="354.75" y1="211.197" x2="250.197" y2="140.25" stroke="#878787" stroke-width="9" stroke-linecap="round"/>
<line x1="136.321" y1="212.775" x2="248.775" y2="139.679" stroke="#878787" stroke-width="9" stroke-linecap="round"/>
<line x1="331.344" y1="71.4965" x2="358.497" y2="94.656" stroke="#878787" stroke-width="9" stroke-linecap="round"/>
<line x1="162.007" y1="75.2861" x2="136.286" y2="93.9925" stroke="#878787" stroke-width="9" stroke-linecap="round"/>
<line x1="165.5" y1="4.5" x2="329.5" y2="4.5" stroke="#878787" stroke-width="9" stroke-linecap="round"/>
<line x1="165.5" y1="5.5" x2="165.5" y2="109.5" stroke="#878787" stroke-width="9" stroke-linecap="round"/>
<line x1="329.5" y1="5.5" x2="329.5" y2="109.5" stroke="#878787" stroke-width="9" stroke-linecap="round"/>
<rect x="170" y="9" width="155" height="96" fill="white"/>
<path d="M493 247L5 247" stroke="#878787" stroke-width="9" stroke-linecap="round"/>
<circle cx="247" cy="69" r="36" fill="#FF4A01"/>
<path d="M263 53L230 91" stroke="white" stroke-width="3" stroke-linecap="round"/>
<path d="M265.304 87.7852L228 54.0002" stroke="white" stroke-width="3" stroke-linecap="round"/>
</svg>
